# xmcd
#
# Track frame offsets:
#	187
#	18687
#	33837
#	50987
#	67725
#	82737
#	100637
#	116775
#	128275
#	142362
#	155587
#	166975
#	179587
#	197050
#	209475
#	228050
#	239750
#	260675
#	274387
#	293325
#
# Disc length: 4133 seconds
#
# Revision: 1
# Processed by: cddbd v1.5PL3 Copyright (c) Steve Scherf et al.
# Submitted via: CDex 1.50Beta5
#
DISCID=23102314
DTITLE=Sylvie Vartan - Sylvie Vartan BEST
DYEAR=1900
DGENRE=
TTITLE0=初恋のニコラ
TTITLE1=涙のシルヴィ
TTITLE2=ディスコ・クイーン（愛しのジョニー）
TTITLE3=哀しみの祈り
TTITLE4=恋のスーパー・ギャル
TTITLE5=アメリカン・ナイト
TTITLE6=さよならソリテュード
TTITLE7=愛の日々
TTITLE8=よそ風のブロンド
TTITLE9=アブラカダブラ
TTITLE10=アイドルを探せ
TTITLE11=私を愛して
TTITLE12=悲しみの兵士
TTITLE13=あなたとりこ
TTITLE14=哀しみのシンフォニー
TTITLE15=しあわせの2分35秒
TTITLE16=愛の経験
TTITLE17=恋人を探せ
TTITLE18=愛の小舟
TTITLE19=思い出のマリアッツァ
EXTD=
EXTT0=
EXTT1=
EXTT2=
EXTT3=
EXTT4=
EXTT5=
EXTT6=
EXTT7=
EXTT8=
EXTT9=
EXTT10=
EXTT11=
EXTT12=
EXTT13=
EXTT14=
EXTT15=
EXTT16=
EXTT17=
EXTT18=
EXTT19=
PLAYORDER=
